<svg width="32" height="32" xmlns="http://www.w3.org/2000/svg">

 <g>
  <title>background</title>
  <rect fill="none" id="canvas_background" height="402" width="582" y="-1" x="-1"/>
 </g>
 <g>
  <title>Layer 1</title>
  <path id="svg_1" fill="#ffffff" d="m16,0c-8.836,0 -16,7.164 -16,16s7.164,16 16,16s16,-7.164 16,-16s-7.164,-16 -16,-16zm0,4c5.207,0 9.605,3.354 11.266,8l-22.532,0c1.661,-4.646 6.059,-8 11.266,-8zm0,14c-1.105,0 -2,-0.895 -2,-2s0.895,-2 2,-2s2,0.895 2,2s-0.895,2 -2,2zm-12,-2c5.465,0 9.891,5.266 9.984,11.797c-5.656,-0.969 -9.984,-5.871 -9.984,-11.797zm14.016,11.797c0.093,-6.531 4.519,-11.797 9.984,-11.797c0,5.926 -4.328,10.828 -9.984,11.797z"/>
 </g>
</svg>