<svg width="94.539" height="89.02099999999999" xmlns="http://www.w3.org/2000/svg">

 <g>
  <title>background</title>
  <rect fill="none" id="canvas_background" height="402" width="582" y="-1" x="-1"/>
 </g>
 <g>
  <title>Layer 1</title>
  <path fill="#ffffff" id="svg_2" d="m53.813,0.014c3.185,-0.158 6.239,1.069 9.162,3.681l21.199,19.191l2.273,-2.453l8.092,7.326l-12.33,13.619l-8.095,-7.38l2.012,-2.222l-21.312,-19.295c-2.467,-2.199 -5.528,-3.208 -9.185,-3.027c-2.424,0.12 -4.755,0.69 -6.99,1.708c4.76,-7.166 9.818,-10.882 15.174,-11.148z"/>
  <rect fill="#ffffff" id="svg_3" y="10.328" x="68.225" width="13.145" transform="matrix(-0.7413,-0.6711,0.6711,-0.7413,122.463,70.393) " height="2.537"/>
  <polygon fill="#ffffff" id="svg_4" points="29.478,50.429 3.583,77.775 16.005,89.021 40.694,60.545   "/>
  <polygon fill="#ffffff" id="svg_6" points="54.548,44.556 69.689,27.088 59.888,18.215 44.013,35.055    "/>
  <path fill="#ffffff" id="svg_7" d="m83.13,75.237c0.299,-1.285 0.417,-2.56 0.354,-3.827c-0.185,-3.727 -1.645,-6.83 -4.381,-9.306c-2.735,-2.476 -5.984,-3.621 -9.749,-3.434c-1.266,0.063 -2.525,0.289 -3.776,0.677l-13.389,-12.069l0.059,-0.068l-10.644,-9.6l-0.017,0.018l-14.018,-12.691c0.265,-1.246 0.365,-2.503 0.303,-3.77c-0.189,-3.8 -1.651,-6.938 -4.386,-9.415c-2.735,-2.476 -5.967,-3.622 -9.694,-3.437c-1.303,0.065 -2.578,0.31 -3.827,0.734l10.827,9.802l-9.593,10.653l-10.829,-9.801c-0.298,1.285 -0.417,2.561 -0.354,3.827c0.185,3.728 1.645,6.83 4.381,9.306c2.735,2.476 5.967,3.622 9.694,3.436c1.376,-0.068 2.723,-0.334 4.042,-0.8l4.699,4.254l0.01,-0.011l30.596,27.594l-0.057,0.063l2.647,2.407c-0.331,1.359 -0.464,2.708 -0.398,4.047c0.187,3.764 1.64,6.885 4.356,9.362c2.718,2.477 5.958,3.622 9.722,3.435c1.267,-0.063 2.525,-0.308 3.773,-0.732l-10.827,-9.802l9.647,-10.656l10.829,9.804z"/>
 </g>
</svg>