<svg width="512" height="512" xmlns="http://www.w3.org/2000/svg">

 <g>
  <title>background</title>
  <rect fill="none" id="canvas_background" height="402" width="582" y="-1" x="-1"/>
 </g>
 <g>
  <title>Layer 1</title>
  <path fill="#ffffff" id="path3796" d="m288.25,152.25c-0.83236,1.21294 -1.73867,1.71924 -2.8125,2.09375c-3.49128,1.21763 -6.69358,1.77851 -10.78125,2.28125c-6.24705,0.76834 -12.97468,2.03719 -19.125,3.375c-7.86741,1.7113 -15.58782,4.02705 -23.25,6.5c-6.9412,2.24024 -13.79728,4.76028 -20.53125,7.5625c-6.40597,2.66574 -12.69292,5.66218 -18.875,8.8125c-5.26591,2.68344 -10.42768,5.56022 -15.5,8.59375c-5.20557,3.11324 -10.31928,6.40021 -15.3125,9.84375c-5.7168,3.94256 -11.24312,8.11294 -16.75,12.34375c-3.19256,2.45278 -6.41333,4.90486 -9.4375,7.5625c-2.04122,1.79382 -1.84459,2.07918 -4.5,3.875c-2.03517,1.37636 -4.52057,1.18 -6.8125,0.09375c-2.29191,-1.08626 -6.09375,-3.34375 -6.09375,-3.34375c0,0 4.56417,-3.41157 8.15625,-5.90625c-0.0657,0.0105 -0.15776,0.0541 -0.21875,0.0625c-2.28276,0.31491 -5.22064,-0.53641 -7.5,-0.875c-1.3838,-0.20556 -2.82195,-0.2654 -4.21875,-0.1875c-3.03887,0.16946 -6.01458,0.87652 -9,1.46875c-14.71032,2.91817 -29.41281,6.05972 -43.8125,10.25c-10.37387,3.01877 -20.64184,6.48159 -30.59375,10.6875c-3.30953,1.39869 -6.66398,2.80865 -9.625,4.84375c-2.73038,1.87658 -5.2815,4.0945 -7.34375,6.6875c-1.94717,2.44831 -3.29147,5.35778 -4.625,8.1875c-1.24442,2.64064 -2.54801,5.29467 -3.125,8.15625c-0.89798,4.45353 -0.46492,9.08194 -0.4375,13.625c0.02954,4.89471 0.17602,9.81632 0.65625,14.6875c0.49245,4.99513 1.21888,9.32917 1.4375,14.34375c0.04575,1.04925 0.02773,2.76235 -0.40625,3.71875c-0.3266,0.71975 -0.39596,0.86851 -0.625,1.625c-0.20646,0.68188 0.12615,1.43867 0.40625,2.09375c0.67054,1.5682 1.7315,2.9815 2.9375,4.1875c0.603,0.603 1.47433,0.88263 2.09375,1.46875c0.90349,0.8549 1.42775,2.06321 2.3125,2.9375c1.87847,1.85627 3.93761,3.59522 6.28125,4.8125c3.31384,1.72118 7.04475,2.55382 10.6875,3.375c3.9227,0.88428 7.9612,1.32601 11.96875,1.65625c2.78589,0.22956 5.1515,0.52922 8.375,0.21875c2.30545,-0.0433 1.93928,-0.023 4.03125,-0.0625c-1.70849,-4.89652 -2.65625,-10.17713 -2.65625,-15.65625c0,-26.20654 21.26221,-47.4375 47.46875,-47.4375c26.20653,0 47.4375,21.23096 47.4375,47.4375c0,4.82682 -0.72285,9.48657 -2.0625,13.875c1.49878,-0.0255 1.20938,-0.00395 2.8125,-0.03125c18.07018,-0.22004 34.22467,-0.47545 49.65625,-0.71875c0.14635,-4.48059 0.39599,-8.94436 0.75,-13.40625c9.19106,-3.29124 19.55244,-0.91701 29.21875,-1.53125c3.14409,-7.77646 6.05994,-16.96445 10.53125,-24.65625c-0.33377,-3.815 -6.09039,-5.0085 -7.84375,-8.4375c-3.28905,-5.43207 -13.33732,-8.69554 -10.59375,-16.40625c15.53392,-14.82172 29.94097,-31.18733 46.15625,-45.3125c-1.15917,0.07396 -2.47389,0.14574 -3.4375,0.21875c-14.34848,1.08721 -28.67124,2.56207 -42.96875,4.1875c-5.38979,0.61275 -15.3125,1.375 -15.3125,1.375c0,0 0.05016,-3.93227 -0.5,-5.78125c-0.55268,-1.85715 -2.71875,-5.125 -2.71875,-5.125l8.25,-33.21875c0,0 9.28343,-4.03524 14.0625,-5.65625c7.41575,-2.51534 15.00643,-4.47083 22.625,-6.28125c7.6913,-1.82769 15.46313,-3.45307 23.28125,-4.625c6.11161,-0.91612 12.277,-1.38587 18.4375,-1.875c3.69695,-0.29353 11.09375,-0.625 11.09375,-0.625c0,0 -3.33392,18.49577 -5.4375,27.65625c-2.21481,9.64493 -7.5625,28.71875 -7.5625,28.71875c0,0 -7.77499,0.3476 -15.0625,0.75c7.33598,4.59934 12.56017,12.41287 19.09375,18.125c7.64466,-3.3105 16.03176,-7.59352 24.46875,-9.90625c1.89486,-3.34747 0.64008,-8.88148 0.90625,-13.03125c0.60497,-5.54644 -1.95582,-13.27931 2.5625,-17.25c0.12524,-0.0102 0.24969,-0.02148 0.375,-0.03125l3.5,-35.15625c0,0 9.71094,0.01416 14.5625,0.21875c6.99703,0.29501 13.99301,0.84868 20.96875,1.46875c7.13905,0.63459 14.27918,1.30354 21.375,2.3125c5.1626,0.73408 10.536,1.64968 15.40625,2.71875c1.16703,0.25618 2.79907,0.99352 2.84375,2.1875c0.27514,7.34602 0.32004,14.33835 0.40625,21.5c0.0921,7.64936 0.09375,22.9375 0.09375,22.9375c0,0 -5.22919,0.02809 -9.0625,0.0625c-0.15567,3.82601 -0.33053,7.67996 -0.09375,11.40625c7.65204,3.22569 16.87935,5.81699 24.34375,10.5c4.0699,-0.16853 5.26242,-5.99801 8.71875,-7.75c5.38508,-3.39214 8.70202,-13.36759 16.40625,-10.65625c15.45368,16.2187 32.575,31.10372 47.125,48.21875c-3.08029,6.48545 -8.78672,11.22868 -14.125,16.1875c7.37433,8.24361 11.90776,19.07489 12.0625,30.96875c2.20976,-0.33925 4.46768,-0.66941 6.4375,0.03125c1.14911,0.19313 2.4816,0.12698 3.875,0.03125c0.38595,-0.30513 0.77796,-0.59613 1.15625,-0.90625c2.52138,-2.06704 4.80375,-4.41437 6.90625,-6.90625c1.325,-1.57039 3.01901,-3.04975 3.5625,-5.03125c0.68597,-2.50099 -0.49069,-1.931 -0.625,-7.78125c-0.21171,-9.22167 0.00875,-18.45397 -0.625,-27.65625c-0.25139,-3.64825 -0.32362,-7.80213 -1.25,-10.90625c-0.32522,-1.08976 -1.36746,-2.15612 -2.09375,-3.03125c-0.66924,-0.80639 -1.98363,-0.95788 -2.09375,-2c-0.41878,-3.96294 -0.46334,-8.10346 -0.65625,-12.15625c-0.12448,-2.61503 0.02509,-5.23808 -0.1875,-7.84375c-0.0258,0.17517 -0.07181,0.35981 -0.125,0.53125c-0.26512,0.85448 -1.23787,1.30294 -1.65625,2.09375c-0.44436,0.83991 -0.68476,1.78192 -0.84375,2.71875c-0.30998,1.82653 -0.30105,3.71169 -0.21875,5.5625c0.086,1.93478 0.5999,3.81914 0.75,5.75c0.0948,1.2194 0.59121,2.57016 0.09375,3.6875c-0.37293,0.83762 -1.24619,1.43148 -2.09375,1.78125c-1.65182,0.68166 -3.57069,0.62856 -5.34375,0.40625c-1.83039,-0.22951 -3.66735,-0.83349 -5.25,-1.78125c-3.11683,-1.8665 -5.41481,-4.85373 -7.96875,-7.4375c-4.189,-4.23792 -8.43464,-8.46772 -12.03125,-13.21875c-0.91852,-1.21334 -2.14637,-2.37556 -2.40625,-3.875c-0.22582,-1.30288 0.04756,-2.79647 0.8125,-3.875c1.46956,-2.07186 4.20926,-2.87115 6.5,-3.96875c2.71021,-1.29861 5.56727,-2.40625 8.5,-3.0625c2.12332,-0.47513 4.32422,-0.6105 6.5,-0.625c2.10306,-0.014 4.25858,-0.04481 6.28125,0.53125c1.84802,0.52632 3.76409,1.26848 5.125,2.625c0.18079,0.18021 0.35213,0.38713 0.5,0.59375c-1.34379,-3.19226 -3.35796,-6.00336 -5.34375,-8.84375c-0.38445,-0.1409 -4.75896,-1.76375 -7.1875,-2.34375c-1.75393,-0.41888 -5.03125,-0.40625 -5.03125,-0.40625c0,0 -4.23993,-6.14567 -6.59375,-9.03125c-2.86056,-3.5068 -5.8835,-6.87325 -9.125,-10.03125c-3.53065,-3.43971 -7.27426,-6.70024 -11.21875,-9.65625c-3.89986,-2.92258 -12.25,-7.96875 -12.25,-7.96875l6.875,-3.40625c-1.02271,-1.13123 0.384,-4.06368 -0.6875,-5.375c-0.81269,-0.99458 -2.17236,-0.99476 -3.875,-1.03125c-4.61033,-0.0988 -8.93015,-0.34835 -13.53125,-0.65625c-5.89662,-0.3946 -11.73461,-1.32156 -17.59375,-2.09375c-5.80857,-0.76552 -11.58241,-1.8922 -17.40625,-2.53125c-12.0478,-1.32202 -24.14385,-2.13689 -36.25,-2.71875c-13.26132,-0.63739 -26.57376,-0.42376 -39.84375,-0.84375c-4.96211,-0.15705 -9.9172,-0.36535 -14.875,-0.625c-4.40383,-0.23063 -8.78007,-0.94871 -13.1875,-0.84375zm122.28125,22.53125c0,0 6.79177,1.64507 10.0625,2.84375c4.57911,1.67819 9.10379,3.5985 13.3125,6.0625c5.26367,3.08163 10.1959,6.79041 14.78125,10.8125c3.12041,2.7371 6.39212,5.48127 8.59375,9c1.94739,3.11238 0.95057,2.97164 -1.90625,4.3125c-5.94626,2.79092 -12.56824,3.86702 -18.96875,5.34375c-6.12214,1.41251 -18.53125,3.34375 -18.53125,3.34375l-7.34375,-41.71875zm-204.875,10.59375c-2.22122,9.08553 -5.41555,18.88801 -7.65625,27.96875c0,0 -3.45553,-0.79532 -5.125,-0.625c-1.43279,0.14617 -4.05812,1.0039 -5.96875,2c-1.66714,0.86915 -3.67186,2.15078 -5.125,3.34375c-1.56589,1.28553 -3.36256,3.57931 -4.09375,5.46875c-1.06166,2.7434 0,7.9375 0,7.9375c0,0 -4.14957,0.37613 -6.8125,0.65625c-2.64839,0.27859 -7.96875,0.625 -7.96875,0.625c0,0 2.5836,-10.73934 4.40625,-15.9375c1.23233,-3.51456 4.40625,-10.28125 4.40625,-10.28125c0,0 3.89355,-3.79446 6.0625,-5.4375c4.1557,-3.14808 8.68067,-5.80866 13.21875,-8.375c4.75923,-2.6914 14.65625,-7.34375 14.65625,-7.34375zm-135.375,50.0625c0.74167,-0.019 1.46153,0.06553 2.09375,0.4375c0.61992,0.36476 1.08832,1.18925 1.03125,1.90625c-0.0987,1.23993 -1.438,2.05296 -2.3125,2.9375c-2.89955,2.93285 -6.39579,5.1846 -9.625,7.75c-4.51937,3.59033 -8.84718,7.44904 -13.625,10.6875c-2.073,1.4051 -4.16886,2.8349 -6.5,3.75c-2.0667,0.8113 -4.30303,1.14819 -6.5,1.46875c-4.088,0.59648 -8.21284,0.90006 -12.34375,0.84375c-1.47359,-0.0201 -3.16459,0.38759 -4.40625,-0.40625c-0.81771,-0.52278 -0.85094,-1.78273 -1.46875,-2.53125c-0.94546,-1.1455 -2.17453,-2.0629 -3.375,-2.9375c-0.6585,-0.47973 -1.95324,-0.4475 -2.09375,-1.25c-0.41964,-2.39669 2.95533,-3.88639 4.625,-5.65625c1.56083,-1.65447 2.91145,-3.76918 5.03125,-4.59375c0.97664,-0.37989 2.10511,0.24076 3.125,0c2.58462,-0.61014 4.68171,-2.5219 7.125,-3.5625c3.06976,-1.3074 6.26877,-2.33009 9.4375,-3.375c3.1902,-1.05199 6.38576,-2.17073 9.65625,-2.9375c2.89612,-0.67902 5.82948,-1.10041 8.78125,-1.46875c2.50431,-0.3125 5.04095,-0.52012 7.5625,-0.625c1.22152,-0.0508 2.54513,-0.40573 3.78125,-0.4375zm30.8125,41.3125c-22.91734,0 -41.5,18.58266 -41.5,41.5c0,22.91733 18.58266,41.5 41.5,41.5c22.91734,0 41.46875,-18.58267 41.46875,-41.5c0,-22.91734 -18.55141,-41.5 -41.46875,-41.5zm0,11.3125c16.66805,0 30.15625,13.51944 30.15625,30.1875c0,16.66805 -13.4882,30.1875 -30.15625,30.1875c-16.66805,0 -30.1875,-13.51945 -30.1875,-30.1875c0,-16.66806 13.51945,-30.1875 30.1875,-30.1875zm366.4375,1.5c-0.42845,0.45447 -0.84141,0.93939 -1.25,1.40625c3.23536,7.6356 7.59405,16.13934 9.96875,24.625c0.51212,0.39663 1.04924,0.65924 1.625,0.84375c-0.13824,-10.29712 -4.00729,-19.692 -10.34375,-26.875zm-115.40625,4.75c-9.63268,0.22655 -18.97642,2.60547 -27.375,7.25c-11.6459,5.99721 -20.39006,16.14384 -25.4375,27.9375c28.06422,-0.57914 55.54148,-1.12857 86.8125,-1.59375c1.38738,-0.0206 2.72571,-0.06565 4.09375,-0.09375c-0.81072,-3.47578 -1.25,-7.0898 -1.25,-10.8125c0,-3.17691 0.3112,-6.27954 0.90625,-9.28125c-10.01724,-8.27392 -22.60282,-13.38321 -35.8125,-13.40625c-0.64448,-0.00383 -1.29532,-0.0151 -1.9375,0zm43.03125,18.28125c-0.1526,1.4467 -0.25,2.91915 -0.25,4.40625c0,13.53486 6.47175,25.54912 16.5,33.125c-0.36389,-14.17674 -6.61497,-27.47901 -16.25,-37.53125z"/>
  <path fill="#ffffff" fill-rule="nonzero" stroke-width="10" id="rect4025-1" d="m324.36112,232.365977c-1.52034,6.05868 -9.34893,4.51312 -13.6875,7.3125c-7.20156,2.66035 -14.11474,6.08359 -20.75,10.03125c-6.67089,-6.78695 -13.43823,-13.4785 -20.15625,-20.21875c-13.4375,13.4375 -26.875,26.875 -40.3125,40.3125c6.74045,6.71782 13.43144,13.48574 20.21875,20.15625c-6.43334,10.69935 -11.26458,22.39419 -14.3125,34.4375c-9.5,0 -19,0 -28.5,0c0,19 0,38 0,57c9.5,0 19,0 28.5,0c3.10194,12.10119 7.78172,23.73324 14.28125,34.40622c-6.72917,6.7292 -13.45833,13.4584 -20.1875,20.1875c13.4375,13.448 26.875,26.89587 40.3125,40.34377c6.71288,-6.735 13.46985,-13.4265 20.15625,-20.18747c10.72676,6.40527 22.38474,11.20747 34.4375,14.24997c0,9.5 0,19 0,28.5c19,0 38,0 57,0c0,-9.5 0,-19 0,-28.5c12.05317,-3.0363 23.70999,-7.8476 34.4375,-14.24997c6.68729,6.76017 13.44273,13.45317 20.15625,20.18747c13.44792,-13.4479 26.89583,-26.89577 40.34375,-40.34377c-6.72917,-6.7291 -13.45833,-13.4583 -20.1875,-20.1875c6.42548,-10.721 11.18392,-22.28825 14.25,-34.40622c9.5,0 19,0 28.5,0c0,-19 0,-38 0,-57c-9.5,0 -19,0 -28.5,0c-3.06086,-12.10093 -7.84771,-23.69556 -14.25,-34.4375c6.76017,-6.68729 13.45318,-13.44273 20.1875,-20.15625c-13.44792,-13.4375 -26.89583,-26.875 -40.34375,-40.3125c-6.71782,6.74045 -13.48574,13.43144 -20.15625,20.21875c-10.72481,-6.44029 -22.37339,-11.28343 -34.4375,-14.25c0,-9.52083 0,-19.04167 0,-28.5625c-19,0 -38,0 -57,0c0,8.48958 0,16.97917 0,25.46875zm28.5,54.03125c33.66352,-0.78462 64.50545,27.78415 66.40304,61.43339c2.80921,31.58671 -19.84643,62.93673 -50.71554,69.81663c-29.25703,7.3089 -62.19699,-7.7596 -75.1875,-34.84377c-14.12822,-27.40316 -6.08222,-64.30216 18.875,-82.5625c11.56346,-8.86893 25.98129,-13.91577 40.625,-13.84375z"/>
 </g>
</svg>