<svg width="18" height="18" xmlns="http://www.w3.org/2000/svg">
 <title/>
 <desc/>

 <g>
  <title>background</title>
  <rect fill="none" id="canvas_background" height="402" width="582" y="-1" x="-1"/>
 </g>
 <g>
  <title>Layer 1</title>
  <path fill="#ffffff" id="Shape" d="m10,6l-2,0l0,2l2,0l0,-2l0,0zm4,0l-2,0l0,2l2,0l0,-2l0,0zm3,6.5c-1.2,0 -2.4,-0.2 -3.6,-0.6c-0.3,-0.1 -0.7,0 -1,0.2l-2.2,2.2c-2.8,-1.4 -5.1,-3.8 -6.6,-6.6l2.2,-2.2c0.3,-0.3 0.4,-0.7 0.2,-1c-0.3,-1.1 -0.5,-2.3 -0.5,-3.5c0,-0.6 -0.4,-1 -1,-1l-3.5,0c-0.6,0 -1,0.4 -1,1c0,9.4 7.6,17 17,17c0.6,0 1,-0.4 1,-1l0,-3.5c0,-0.6 -0.4,-1 -1,-1l0,0zm-1,-6.5l0,2l2,0l0,-2l-2,0l0,0z"/>
 </g>
</svg>