<?xml version="1.0" encoding="UTF-8"?>
<svg width="247px" height="91px" viewBox="0 0 247 91" version="1.1" xmlns="http://www.w3.org/2000/svg" xmlns:xlink="http://www.w3.org/1999/xlink">
    <!-- Generator: Sketch 55.2 (78181) - https://sketchapp.com -->
    <title>logo Reweb horizontal - verde</title>
    <desc>Created with Sketch.</desc>
    <g id="logo-Reweb-horizontal---verde" stroke="none" stroke-width="1" fill="none" fill-rule="evenodd">
        <g id="lettering-Reweb---verde" transform="translate(102.000000, 22.000000)" fill="#328267" fill-rule="nonzero">
            <path d="M2.45,21.95 C2.45,19.94999 2.94166175,18.1583412 3.925,16.575 C4.90833825,14.9916587 6.233325,13.733338 7.9,12.8 C9.566675,11.866662 11.39999,11.4 13.4,11.4 C15.40001,11.4 16.8916617,11.7249967 17.875,12.375 C18.8583383,13.0250032 19.2333345,13.7999955 19,14.7 C18.8999995,15.166669 18.7083347,15.5249987 18.425,15.775 C18.1416652,16.0250012 17.8166685,16.183333 17.45,16.25 C17.0833315,16.316667 16.6833355,16.3000005 16.25,16.2 C14.116656,15.7666645 12.2000085,15.7333315 10.5,16.1 C8.7999915,16.4666685 7.45833825,17.149995 6.475,18.15 C5.49166175,19.150005 5,20.416659 5,21.95 L2.45,21.95 Z M2.5,39.05 C1.699996,39.05 1.0833355,38.8416687 0.65,38.425 C0.2166645,38.0083312 0,37.3833375 0,36.55 L0,14.2 C0,13.399996 0.2166645,12.7833355 0.65,12.35 C1.0833355,11.9166645 1.699996,11.7 2.5,11.7 C3.3333375,11.7 3.95833125,11.9083312 4.375,12.325 C4.79166875,12.7416687 5,13.3666625 5,14.2 L5,36.55 C5,37.350004 4.79166875,37.9666645 4.375,38.4 C3.95833125,38.8333355 3.3333375,39.05 2.5,39.05 Z M25.0925808,23.15 L41.7460839,23.15 C41.5991513,22.0364728 41.3004579,21.0114782 40.85,20.075 C40.2166635,18.7583267 39.3166725,17.7166705 38.15,16.95 C36.9833275,16.1833295 35.566675,15.8 33.9,15.8 C31.9999905,15.8 30.3750068,16.2166625 29.025,17.05 C27.6749932,17.8833375 26.6500035,19.0249927 25.95,20.475 C25.5497838,21.3040193 25.263978,22.1956829 25.0925808,23.15 L25.0925808,23.15 Z M25.0361786,27.15 C25.2204464,28.2897616 25.591719,29.3397566 26.15,30.3 C26.9833375,31.7333405 28.133326,32.8666625 29.6,33.7 C31.066674,34.5333375 32.7499905,34.95 34.65,34.95 C35.6833385,34.95 36.7416613,34.7583352 37.825,34.375 C38.9083387,33.9916647 39.78333,33.5500025 40.45,33.05 C40.9500025,32.6833315 41.4916638,32.4916667 42.075,32.475 C42.6583363,32.4583332 43.1666645,32.6333315 43.6,33 C44.1666695,33.5 44.4666665,34.049997 44.5,34.65 C44.5333335,35.250003 44.2666695,35.7666645 43.7,36.2 C42.566661,37.1000045 41.1583418,37.8333305 39.475,38.4 C37.7916582,38.9666695 36.183341,39.25 34.65,39.25 C31.8833195,39.25 29.4250107,38.6583392 27.275,37.475 C25.1249892,36.2916608 23.4416727,34.6583437 22.225,32.575 C21.0083273,30.4916563 20.4,28.1000135 20.4,25.4 C20.4,22.666653 20.9749943,20.2583437 22.125,18.175 C23.2750057,16.0916562 24.8666565,14.4583392 26.9,13.275 C28.9333435,12.0916607 31.2666535,11.5 33.9,11.5 C36.500013,11.5 38.733324,12.0749942 40.6,13.225 C42.466676,14.3750057 43.8916617,15.9583232 44.875,17.975 C45.8583383,19.9916767 46.35,22.3166535 46.35,24.95 C46.35,25.5833365 46.1333355,26.1083312 45.7,26.525 C45.2666645,26.9416687 44.71667,27.15 44.05,27.15 L25.0361786,27.15 L25.0361786,27.15 Z M57.7412157,30.858246 L62.85,13.6 C63.0166675,13.0333305 63.299998,12.5750017 63.7,12.225 C64.100002,11.8749982 64.6499965,11.7 65.35,11.7 C66.01667,11.7 66.5583313,11.8749982 66.975,12.225 C67.3916688,12.5750017 67.666666,13.0333305 67.8,13.6 L72.3155962,31.1968594 L77.8,14 C78.266669,12.466659 79.133327,11.7 80.4,11.7 C81.333338,11.7 81.966665,12.0249967 82.3,12.675 C82.633335,13.3250033 82.6166685,14.1666615 82.25,15.2 L74.85,37.4 C74.716666,37.866669 74.4333355,38.2583317 74,38.575 C73.5666645,38.8916682 73.0666695,39.05 72.5,39.05 C71.966664,39.05 71.466669,38.8916682 71,38.575 C70.533331,38.2583317 70.233334,37.866669 70.1,37.4 L65.1940758,19.2528436 L60.05,37.4 C59.916666,37.866669 59.6250023,38.2583317 59.175,38.575 C58.7249978,38.8916682 58.2166695,39.05 57.65,39.05 C57.116664,39.05 56.6250023,38.8916682 56.175,38.575 C55.7249978,38.2583317 55.4166675,37.866669 55.25,37.4 L47.85,15.2 C47.583332,14.1666615 47.5916653,13.3250033 47.875,12.675 C48.1583347,12.0249967 48.7833285,11.7 49.75,11.7 C50.3833365,11.7 50.9083312,11.8749982 51.325,12.225 C51.7416687,12.5750017 52.083332,13.1666625 52.35,14 L57.7412157,30.858246 L57.7412157,30.858246 Z M89.5425808,23.15 L106.196084,23.15 C106.049151,22.0364728 105.750458,21.0114782 105.3,20.075 C104.666663,18.7583267 103.766672,17.7166705 102.6,16.95 C101.433327,16.1833295 100.016675,15.8 98.35,15.8 C96.4499905,15.8 94.8250068,16.2166625 93.475,17.05 C92.1249932,17.8833375 91.1000035,19.0249927 90.4,20.475 C89.9997838,21.3040193 89.713978,22.1956829 89.5425808,23.15 L89.5425808,23.15 Z M89.4861786,27.15 C89.6704464,28.2897616 90.041719,29.3397566 90.6,30.3 C91.4333375,31.7333405 92.583326,32.8666625 94.05,33.7 C95.516674,34.5333375 97.1999905,34.95 99.1,34.95 C100.133339,34.95 101.191661,34.7583352 102.275,34.375 C103.358339,33.9916647 104.23333,33.5500025 104.9,33.05 C105.400003,32.6833315 105.941664,32.4916667 106.525,32.475 C107.108336,32.4583332 107.616665,32.6333315 108.05,33 C108.616669,33.5 108.916667,34.049997 108.95,34.65 C108.983334,35.250003 108.71667,35.7666645 108.15,36.2 C107.016661,37.1000045 105.608342,37.8333305 103.925,38.4 C102.241658,38.9666695 100.633341,39.25 99.1,39.25 C96.3333195,39.25 93.8750108,38.6583392 91.725,37.475 C89.5749893,36.2916608 87.8916727,34.6583437 86.675,32.575 C85.4583272,30.4916563 84.85,28.1000135 84.85,25.4 C84.85,22.666653 85.4249943,20.2583437 86.575,18.175 C87.7250058,16.0916562 89.3166565,14.4583392 91.35,13.275 C93.3833435,12.0916607 95.7166535,11.5 98.35,11.5 C100.950013,11.5 103.183324,12.0749942 105.05,13.225 C106.916676,14.3750057 108.341662,15.9583232 109.325,17.975 C110.308338,19.9916767 110.8,22.3166535 110.8,24.95 C110.8,25.5833365 110.583335,26.1083312 110.15,26.525 C109.716664,26.9416687 109.16667,27.15 108.5,27.15 L89.4861786,27.15 L89.4861786,27.15 Z M130.55,39.25 C127.949987,39.25 125.616677,38.6416727 123.55,37.425 C121.483323,36.2083272 119.850006,34.5500105 118.65,32.45 C117.449994,30.3499895 116.833334,27.9833465 116.8,25.35 L116.8,2.55 C116.8,1.7833295 117.041664,1.166669 117.525,0.7 C118.008336,0.233331 118.616663,0 119.35,0 C120.116671,0 120.733331,0.233331 121.2,0.7 C121.666669,1.166669 121.9,1.7833295 121.9,2.55 L121.9,16.05 C123.066673,14.649993 124.474992,13.5416707 126.125,12.725 C127.775008,11.9083292 129.583324,11.5 131.55,11.5 C133.983346,11.5 136.166657,12.1083273 138.1,13.325 C140.033343,14.5416727 141.558328,16.1916562 142.675,18.275 C143.791672,20.3583437 144.35,22.7166535 144.35,25.35 C144.35,27.9833465 143.741673,30.3499895 142.525,32.45 C141.308327,34.5500105 139.666677,36.2083272 137.6,37.425 C135.533323,38.6416727 133.183346,39.25 130.55,39.25 Z M130.55,34.75 C132.250008,34.75 133.76666,34.3416707 135.1,33.525 C136.43334,32.7083292 137.491663,31.5833405 138.275,30.15 C139.058337,28.7166595 139.45,27.1166755 139.45,25.35 C139.45,23.549991 139.058337,21.950007 138.275,20.55 C137.491663,19.149993 136.43334,18.0416707 135.1,17.225 C133.76666,16.4083292 132.250008,16 130.55,16 C128.883325,16 127.375007,16.4083292 126.025,17.225 C124.674993,18.0416707 123.61667,19.149993 122.85,20.55 C122.083329,21.950007 121.7,23.549991 121.7,25.35 C121.7,27.1166755 122.083329,28.7166595 122.85,30.15 C123.61667,31.5833405 124.674993,32.7083292 126.025,33.525 C127.375007,34.3416707 128.883325,34.75 130.55,34.75 Z" id="reweb"></path>
        </g>
        <g id="simbolo-Reweb---verde">
            <path d="M44.47379,0.109492787 C39.4040855,0.837802369 35.5121951,5.1112723 35.5121951,10.2741935 C35.5121951,15.3962879 39.342777,19.6429424 44.353743,20.4209528 C44.4082196,20.5592679 44.762059,20.6319171 45.5,20.6319171 L9.98780488,20.6319171 C15.871658,20.6319171 20.6414634,16.0133052 20.6414634,10.3159586 C20.6414634,4.61861197 15.871658,0 9.98780488,0 L45.5,0 C44.9708416,0 44.6391865,0.0373558944 44.47379,0.109492787 Z" id="Combined-Shape" fill="#32C5FF"></path>
            <path d="M46.0121951,0 C65.3421614,0 81.0121951,15.3330438 81.0121951,34.2473118 C81.0121951,46.1185172 74.8394195,56.5789985 65.4632259,62.7232553 L74.8978643,71.9549982 L74.883624,71.9689322 C76.5194544,73.7805921 77.5121951,76.1612643 77.5121951,78.7688172 C77.5121951,84.4430976 72.811185,89.0430108 67.0121951,89.0430108 C64.3473334,89.0430108 61.9143387,88.0716193 60.0628621,86.4709681 L60.0486219,86.4849021 L39.0121951,65.9008716 L39.0242722,65.8890543 C36.8691406,64.0074573 35.5121951,61.2690017 35.5121951,58.2204301 C35.5121951,52.5461497 40.2132052,47.9462366 46.0121951,47.9462366 C53.7441816,47.9462366 60.0121951,41.813019 60.0121951,34.2473118 C60.0121951,26.6816046 53.7441816,20.5483871 46.0121951,20.5483871 C40.2132052,20.5483871 35.5121951,15.948474 35.5121951,10.2741935 C35.5121951,4.59991314 40.2132052,0 46.0121951,0 Z" id="Path" fill="#328267"></path>
            <ellipse id="Oval" fill="#F7B500" cx="10.5426829" cy="10.3159586" rx="10.5426829" ry="10.3159586"></ellipse>
        </g>
    </g>
</svg>